<svg viewBox="0 0 520 110" xmlns="http://www.w3.org/2000/svg">
  <!-- Icon -->
  <circle cx="55" cy="55" r="50" fill="none" stroke="#00B4D8" stroke-width="1.5" opacity="0.7"/>
  <circle cx="55" cy="55" r="46" fill="none" stroke="#00B4D8" stroke-width="0.4" opacity="0.2"/>
  <g stroke="#00B4D8" stroke-linecap="round">
  <line x1="55" y1="5" x2="55" y2="12" stroke-width="1.8"/>
  <line x1="55" y1="98" x2="55" y2="105" stroke-width="1.8"/>
  <line x1="5" y1="55" x2="12" y2="55" stroke-width="1.8"/>
  <line x1="98" y1="55" x2="105" y2="55" stroke-width="1.8"/>
  </g>
  <ellipse cx="55" cy="55" rx="40" ry="14" fill="none" stroke="#FF6B35" stroke-width="0.8" opacity="0.3" transform="rotate(-30 55 55)"/>
  <ellipse cx="55" cy="55" rx="40" ry="14" fill="none" stroke="#FF6B35" stroke-width="0.8" opacity="0.3" transform="rotate(30 55 55)"/>
  <ellipse cx="55" cy="55" rx="40" ry="14" fill="none" stroke="#FF6B35" stroke-width="0.8" opacity="0.3" transform="rotate(90 55 55)"/>
  <line x1="55" y1="15" x2="55" y2="55" stroke="#00B4D8" stroke-width="1.8" opacity="0.9" stroke-linecap="round"/>
  <line x1="82" y1="22" x2="55" y2="55" stroke="#FF6B35" stroke-width="1.4" opacity="0.85" stroke-linecap="round"/>
  <line x1="95" y1="55" x2="55" y2="55" stroke="#00B4D8" stroke-width="1.8" opacity="0.9" stroke-linecap="round"/>
  <line x1="82" y1="88" x2="55" y2="55" stroke="#FF6B35" stroke-width="1.4" opacity="0.85" stroke-linecap="round"/>
  <line x1="55" y1="95" x2="55" y2="55" stroke="#00B4D8" stroke-width="1.8" opacity="0.9" stroke-linecap="round"/>
  <line x1="28" y1="88" x2="55" y2="55" stroke="#FF6B35" stroke-width="1.4" opacity="0.85" stroke-linecap="round"/>
  <line x1="15" y1="55" x2="55" y2="55" stroke="#00B4D8" stroke-width="1.8" opacity="0.9" stroke-linecap="round"/>
  <line x1="28" y1="22" x2="55" y2="55" stroke="#FF6B35" stroke-width="1.4" opacity="0.85" stroke-linecap="round"/>
  <circle cx="55" cy="55" r="18" fill="#060610" stroke="#00B4D8" stroke-width="1.8"/>
  <circle cx="55" cy="55" r="13" fill="none" stroke="#FF6B35" stroke-width="0.8" opacity="0.5"/>
  <text x="55" y="52" font-family="monospace" font-weight="700" font-size="9" fill="#F0EDE8" text-anchor="middle" dominant-baseline="middle" letter-spacing="1">AITDL</text>
  <line x1="40" y1="57" x2="70" y2="57" stroke="#FF6B35" stroke-width="0.7" opacity="0.6"/>
  <text x="55" y="63" font-family="monospace" font-size="3.5" fill="#FF6B35" text-anchor="middle" dominant-baseline="middle" letter-spacing="1.5" opacity="0.8">AI·TECH·DL</text>
  <!-- Divider -->
  <line x1="120" y1="12" x2="120" y2="98" stroke="rgba(255,255,255,0.07)" stroke-width="1"/>
  <!-- Word mark -->
  <text x="138" y="58" font-family="monospace" font-weight="700" font-size="42" fill="#F0EDE8" letter-spacing="2">AITDL</text>
  <!-- Underline -->
  <line x1="138" y1="68" x2="510" y2="68" stroke="#FF6B35" stroke-width="0.8" opacity="0.35"/>
  <!-- Taglines -->
  <text x="138" y="80" font-family="monospace" font-size="8.5" fill="#00B4D8" letter-spacing="1.8" opacity="0.75">ARTIFICIAL INTELLIGENCE TECHNOLOGY</text>
  <text x="138" y="92" font-family="monospace" font-size="8.5" fill="#FF6B35" letter-spacing="1.8" opacity="0.75">&amp; DEEP LEARNING · INDIA'S AI COMMAND CENTER</text>
</svg>
