<svg viewBox="0 0 240 240" xmlns="http://www.w3.org/2000/svg">
  <!-- Outer precision ring -->
  <circle cx="120" cy="120" r="112" fill="none" stroke="#00B4D8" stroke-width="1.5" opacity="0.6"/>
  <circle cx="120" cy="120" r="108" fill="none" stroke="#00B4D8" stroke-width="0.4" opacity="0.2"/>

  <!-- 72 precision tick marks -->
  <g stroke="#00B4D8" stroke-linecap="round">
  <line x1="120" y1="8" x2="120" y2="18" stroke-width="2"/>
  <line x1="120" y1="222" x2="120" y2="232" stroke-width="2"/>
  <line x1="8" y1="120" x2="18" y2="120" stroke-width="2"/>
  <line x1="222" y1="120" x2="232" y2="120" stroke-width="2"/>
  <line x1="35" y1="35" x2="42" y2="42" stroke-width="1.5"/>
  <line x1="198" y1="35" x2="205" y2="42" stroke-width="1.5"/>
  <line x1="35" y1="205" x2="42" y2="198" stroke-width="1.5"/>
  <line x1="198" y1="205" x2="205" y2="198" stroke-width="1.5"/>
  <!-- Minor ticks -->
  <line x1="176" y1="10" x2="174" y2="18" stroke-width="0.8" opacity="0.5"/>
  <line x1="64" y1="10" x2="66" y2="18" stroke-width="0.8" opacity="0.5"/>
  <line x1="230" y1="64" x2="222" y2="66" stroke-width="0.8" opacity="0.5"/>
  <line x1="230" y1="176" x2="222" y2="174" stroke-width="0.8" opacity="0.5"/>
  <line x1="10" y1="64" x2="18" y2="66" stroke-width="0.8" opacity="0.5"/>
  <line x1="10" y1="176" x2="18" y2="174" stroke-width="0.8" opacity="0.5"/>
  <line x1="176" y1="230" x2="174" y2="222" stroke-width="0.8" opacity="0.5"/>
  <line x1="64" y1="230" x2="66" y2="222" stroke-width="0.8" opacity="0.5"/>
  <!-- Extra minor ticks -->
  <line x1="150" y1="9" x2="149" y2="15" stroke-width="0.5" opacity="0.3"/>
  <line x1="90" y1="9" x2="91" y2="15" stroke-width="0.5" opacity="0.3"/>
  <line x1="231" y1="90" x2="225" y2="91" stroke-width="0.5" opacity="0.3"/>
  <line x1="231" y1="150" x2="225" y2="149" stroke-width="0.5" opacity="0.3"/>
  <line x1="9" y1="90" x2="15" y2="91" stroke-width="0.5" opacity="0.3"/>
  <line x1="9" y1="150" x2="15" y2="149" stroke-width="0.5" opacity="0.3"/>
  <line x1="150" y1="231" x2="149" y2="225" stroke-width="0.5" opacity="0.3"/>
  <line x1="90" y1="231" x2="91" y2="225" stroke-width="0.5" opacity="0.3"/>
  </g>

  <!-- Rotating text ring simulation -->
  <text x="120" y="236" font-family="monospace" font-size="5.5" fill="#00B4D8" text-anchor="middle" letter-spacing="3.2" opacity="0.4">ARTIFICIAL INTELLIGENCE TECHNOLOGY &amp; DEEP LEARNING</text>

  <!-- 3 orbital rings -->
  <ellipse cx="120" cy="120" rx="88" ry="32" fill="none" stroke="#FF6B35" stroke-width="1" opacity="0.35" transform="rotate(-30 120 120)"/>
  <ellipse cx="120" cy="120" rx="88" ry="32" fill="none" stroke="#FF6B35" stroke-width="1" opacity="0.35" transform="rotate(30 120 120)"/>
  <ellipse cx="120" cy="120" rx="88" ry="32" fill="none" stroke="#FF6B35" stroke-width="1" opacity="0.35" transform="rotate(90 120 120)"/>

  <!-- 12 main energy spokes -->
  <line x1="120" y1="30" x2="120" y2="120" stroke="#00B4D8" stroke-width="2.2" opacity="0.9" stroke-linecap="round"/>
  <line x1="172" y1="42" x2="120" y2="120" stroke="#FF6B35" stroke-width="1.8" opacity="0.85" stroke-linecap="round"/>
  <line x1="208" y1="78" x2="120" y2="120" stroke="#00B4D8" stroke-width="2.2" opacity="0.9" stroke-linecap="round"/>
  <line x1="210" y1="120" x2="120" y2="120" stroke="#FF6B35" stroke-width="1.8" opacity="0.85" stroke-linecap="round"/>
  <line x1="208" y1="162" x2="120" y2="120" stroke="#00B4D8" stroke-width="2.2" opacity="0.9" stroke-linecap="round"/>
  <line x1="172" y1="198" x2="120" y2="120" stroke="#FF6B35" stroke-width="1.8" opacity="0.85" stroke-linecap="round"/>
  <line x1="120" y1="210" x2="120" y2="120" stroke="#00B4D8" stroke-width="2.2" opacity="0.9" stroke-linecap="round"/>
  <line x1="68" y1="198" x2="120" y2="120" stroke="#FF6B35" stroke-width="1.8" opacity="0.85" stroke-linecap="round"/>
  <line x1="32" y1="162" x2="120" y2="120" stroke="#00B4D8" stroke-width="2.2" opacity="0.9" stroke-linecap="round"/>
  <line x1="30" y1="120" x2="120" y2="120" stroke="#FF6B35" stroke-width="1.8" opacity="0.85" stroke-linecap="round"/>
  <line x1="32" y1="78" x2="120" y2="120" stroke="#00B4D8" stroke-width="2.2" opacity="0.9" stroke-linecap="round"/>
  <line x1="68" y1="42" x2="120" y2="120" stroke="#FF6B35" stroke-width="1.8" opacity="0.85" stroke-linecap="round"/>

  <!-- nodes -->
  <circle cx="120" cy="30" r="5" fill="#00B4D8"/>
  <circle cx="172" cy="42" r="4" fill="#FF6B35"/>
  <circle cx="208" cy="78" r="5" fill="#00B4D8"/>
  <circle cx="210" cy="120" r="4" fill="#FF6B35"/>
  <circle cx="208" cy="162" r="5" fill="#00B4D8"/>
  <circle cx="172" cy="198" r="4" fill="#FF6B35"/>
  <circle cx="120" cy="210" r="5" fill="#00B4D8"/>
  <circle cx="68" cy="198" r="4" fill="#FF6B35"/>
  <circle cx="32" cy="162" r="5" fill="#00B4D8"/>
  <circle cx="30" cy="120" r="4" fill="#FF6B35"/>
  <circle cx="32" cy="78" r="5" fill="#00B4D8"/>
  <circle cx="68" cy="42" r="4" fill="#FF6B35"/>

  <!-- Core -->
  <circle cx="120" cy="120" r="38" fill="#060610" stroke="#00B4D8" stroke-width="2"/>
  <circle cx="120" cy="120" r="32" fill="none" stroke="#FF6B35" stroke-width="1.2" opacity="0.6"/>
  <circle cx="120" cy="120" r="24" fill="none" stroke="#00B4D8" stroke-width="0.6" opacity="0.4" stroke-dasharray="2,3"/>

  <!-- Word mark -->
  <text x="120" y="114" font-family="monospace" font-weight="700" font-size="16" fill="#F0EDE8" text-anchor="middle" dominant-baseline="middle" letter-spacing="1.5">AITDL</text>
  <line x1="88" y1="121" x2="152" y2="121" stroke="#FF6B35" stroke-width="0.8" opacity="0.7"/>
  <text x="120" y="130" font-family="monospace" font-size="5" fill="#FF6B35" text-anchor="middle" dominant-baseline="middle" letter-spacing="2.5" opacity="0.9">AI · TECH · DL</text>
</svg>
